<svg xmlns="http://www.w3.org/2000/svg" viewBox="0 0 83.959 32.085" width="24" height="9"><path fill="#ffffff" d="M69.449 10.327V.894a.665.665 0 00-.667-.664h-3.759a.665.665 0 00-.666.664v9.433c0 .515.716 7.217-5.114 7.217-2.759 0-4.367-1.805-4.839-4.556a16.12 16.12 0 01-.124-2.66V.881a.665.665 0 00-.664-.667h-3.911a.665.665 0 00-.669.667v9.446c0 2.56.103 5.33 1.45 7.448 1.93 3.015 4.647 4.226 8.277 4.237 2.378 0 4.01-.643 5.812-2.269v3.113c0 3.838-3.357 4.535-5.505 4.668a25.318 25.318 0 01-4.412-.247c-.588-.085-1.004.015-1.004.63v3.394c-.01.254.193.522.609.558 4.98.429 8.34.336 10.868-1.098 1.796-1.02 3.029-2.708 3.676-4.675.474-1.418.643-3.163.643-4.675V10.327zM11.419 0C7.396 0 4.296 1.63 2.377 4.131 1 5.931-.06 8.412-.06 12.583v18.146a.78.78 0 00.777.787h3.678a.778.778 0 00.778-.778v-9.582c1.81 1.38 4.112 2.213 6.247 2.213 3.63-.013 7.095-1.58 9.262-4.54 1.5-2.049 2.202-4.632 2.202-7.147 0-2.515-.704-5.098-2.202-7.147C18.515 1.58 15.05 0 11.42 0zm5.599 14.364c-.843 2.52-2.839 4.526-5.599 4.541-2.759.015-4.759-2.021-5.597-4.54a8.88 8.88 0 01-.446-2.685 8.859 8.859 0 01.446-2.675c.839-2.513 2.834-4.52 5.597-4.533 2.764-.013 4.756 2.017 5.599 4.533a8.859 8.859 0 01.446 2.684 8.88 8.88 0 01-.446 2.676zm10.688 7.48c1.464 1.156 3.462 1.703 5.942 1.703h11.263a.663.663 0 00.66-.663V9.532c0-3.04-.678-5.373-2.145-6.932C41.913.982 39.032.214 36.32.214a15.452 15.452 0 00-7.798 2.071.489.489 0 00-.238.43v.028l.214 3.35c.032.453.567.6.976.343 3.338-2.073 7.343-2.457 9.37-1.438 1.425.718 1.804 2.234 1.804 3.215v.49h-5.575c-2.389 0-9.728.86-9.728 7.63v.111c0 2.315.795 4.181 2.373 5.407zm7.655-9.064h5.279v6.623h-6.662a4.112 4.112 0 01-2.358-.828 2.615 2.615 0 01-1.115-2.186v-.025c.022-1.204.834-3.584 4.858-3.584z"/><path fill="#ff5a00" d="M83.984 18.172a5.41 5.41 0 01-5.409 5.41 5.41 5.41 0 01-5.41-5.41 5.41 5.41 0 015.41-5.41 5.41 5.41 0 015.41 5.41"/></svg>
