<svg xmlns="http://www.w3.org/2000/svg" viewBox="0 0 135 40" width="135" height="40"><rect width="100%" height="100%" rx="7"/><path d="M34.07 14.46v11.08c0 5.22-1.91 7.13-7.13 7.13H15.86c-5.22 0-7.12-1.91-7.12-7.13V14.46c0-5.22 1.9-7.13 7.12-7.13h11.08c5.22 0 7.13 1.91 7.13 7.13z" fill="#c8102e"/><path d="M46.19 18.44L41.6 30.13h2.06L44.81 27h4.68l1.17 3.13h2.16l-4.69-11.69zm-.79 7l1.24-3.36c.18-.52.34-1 .49-1.52q.25.84.51 1.53l1.25 3.35zm14.49-3.74a3.18 3.18 0 00-1.62-.44 3.5 3.5 0 00-2.66 1.27 9.89 9.89 0 00-.15-1.11h-1.87q.06 1.17.06 2.13v10.23l2-.17V30a5.54 5.54 0 001.75.29 4.13 4.13 0 002.16-.55A3.72 3.72 0 0061 28.11a5.93 5.93 0 00.52-2.61 5.48 5.48 0 00-.46-2.41 3.17 3.17 0 00-1.17-1.39zM58.9 28a2.1 2.1 0 01-1.78.82 3.53 3.53 0 01-.78-.09 2.66 2.66 0 01-.69-.23v-4.65a3.93 3.93 0 01.93-.74 2.22 2.22 0 011.08-.27 1.62 1.62 0 011.34.65 3.5 3.5 0 01.51 2.12A4 4 0 0158.9 28zM69 21.7a3.12 3.12 0 00-1.61-.44 3.54 3.54 0 00-2.67 1.27 8 8 0 00-.14-1.11h-1.89q.06 1.17.06 2.13v10.23l2-.17V30a5.6 5.6 0 001.76.29 4.16 4.16 0 002.16-.55 3.78 3.78 0 001.46-1.64 6.07 6.07 0 00.52-2.61 5.48 5.48 0 00-.46-2.41A3.12 3.12 0 0069 21.7zM68 28a2.07 2.07 0 01-1.77.82 3.46 3.46 0 01-.78-.09 2.62 2.62 0 01-.7-.23v-4.65a4 4 0 01.94-.74 2.21 2.21 0 011.07-.27 1.64 1.64 0 011.35.65 3.58 3.58 0 01.5 2.12A4 4 0 0168 28zm9-3.61h4.65v4.93a10.71 10.71 0 01-2.11.72 10.22 10.22 0 01-2.19.25 6.17 6.17 0 01-3-.72 4.86 4.86 0 01-2-2 6.7 6.7 0 01-.69-3.14 6.59 6.59 0 01.8-3.35A5.12 5.12 0 0174.6 19a6.74 6.74 0 013.08-.69 8 8 0 011.93.23 8.42 8.42 0 011.71.6l-.51 1.54a7 7 0 00-3-.76 4.2 4.2 0 00-2.13.52 3.59 3.59 0 00-1.43 1.53 5.36 5.36 0 00-.51 2.44 5.94 5.94 0 00.39 2.22 3.34 3.34 0 001.24 1.53 3.71 3.71 0 002.13.57 6.57 6.57 0 001.16-.1 6 6 0 001.09-.28V26H77zm13.54.61a4.92 4.92 0 00-.44-2.25 2.51 2.51 0 00-1.24-1.17 4.81 4.81 0 00-1.92-.35 8.37 8.37 0 00-1.84.2 8 8 0 00-1.4.45l.3 1.48a7.07 7.07 0 011.28-.44 5.18 5.18 0 011.36-.19 2 2 0 011.41.47 2.21 2.21 0 01.5 1.63V25a10.53 10.53 0 00-1.55-.11 4.82 4.82 0 00-3 .75 2.49 2.49 0 00-.91 2 2.74 2.74 0 00.36 1.45 2.28 2.28 0 001 .89 3.09 3.09 0 001.37.3 3.55 3.55 0 001.67-.39A3.78 3.78 0 0088.6 29a7.31 7.31 0 00.13 1.15h1.88c0-.73-.07-1.27-.07-1.63zm-2 2.75a3.44 3.44 0 01-1 .74 2.81 2.81 0 01-1.22.3 1.37 1.37 0 01-.93-.31 1.24 1.24 0 01-.35-1 1.34 1.34 0 01.48-1.08 2.73 2.73 0 011.7-.4 12.78 12.78 0 011.34.09zm6.81.84l.24 1.43a4.27 4.27 0 01-.69.18 5.5 5.5 0 01-.77.07c-1.39 0-2.08-.75-2.08-2.26V17.75l2-.16v10.1a1.26 1.26 0 00.19.79.73.73 0 00.6.23 2.16 2.16 0 00.53-.09zm5 0l.23 1.43a4.27 4.27 0 01-.69.18 5.37 5.37 0 01-.77.07C97.73 30.3 97 29.55 97 28V17.75l2-.16v10.1a1.26 1.26 0 00.19.79.75.75 0 00.6.23 2.23 2.23 0 00.55-.09zm6.77-6.78a3.48 3.48 0 00-2.06-.58 4.06 4.06 0 00-2.1.55 3.77 3.77 0 00-1.41 1.59 5.62 5.62 0 00-.51 2.49 5.39 5.39 0 00.48 2.37 3.37 3.37 0 001.43 1.51 4.82 4.82 0 002.34.53 7.46 7.46 0 003.29-.71l-.44-1.37a7.08 7.08 0 01-1.23.4 5.47 5.47 0 01-1.25.15c-1.65 0-2.52-.91-2.61-2.74h5.7v-.5a5.41 5.41 0 00-.4-2.12 3.47 3.47 0 00-1.24-1.54zm-4 2.93a2.81 2.81 0 01.65-1.56 1.7 1.7 0 011.27-.53 1.62 1.62 0 011.25.52 2.47 2.47 0 01.52 1.57zm11.59-3.51a2.66 2.66 0 01.79.1l-.25 1.73a2.22 2.22 0 00-.65-.09 2.12 2.12 0 00-1.23.36 4.94 4.94 0 00-1.12 1.18v5.59h-2v-6.49c0-.48 0-1.21-.07-2.19h1.87q0 .38.09.87c0 .34 0 .61.06.82a7.52 7.52 0 01.68-1 2.85 2.85 0 01.79-.64 2 2 0 011.02-.21zm10 .16l-3.21 8.83a9.3 9.3 0 01-1 2 3.39 3.39 0 01-1.24 1.13 3.68 3.68 0 01-1.73.38 5.46 5.46 0 01-.93-.08 5.53 5.53 0 01-.72-.17l.36-1.46a4 4 0 00.51.11 3 3 0 00.58 0c.88 0 1.55-.56 2-1.7l.13-.32-3.22-8.79h2.14l1.62 5.01a17.42 17.42 0 01.51 1.93c.15-.63.33-1.26.53-1.89l1.64-4.95zM30.58 20h.66v3.31h-.66zm-16.83 0h.67v3.31h-.67V22h-1.51v1.34h-.68V20h.68v1.34h1.51zm3.79 0h.67v1.87a1.33 1.33 0 01-1.43 1.49 1.31 1.31 0 01-1.42-1.46V20H16v1.88c0 .55.27.84.76.84s.75-.28.75-.82zm10.4 2.71h1.84v.6h-2.5V20h2.43v.61h-1.77v.68h1.22v.6h-1.22zM26 20h.69l-1.15 3.31H25l-.75-2.17-.75 2.17H23L21.81 20h.71l.73 2.28L24 20h.55l.75 2.28zm-6 0l-1.46 3.31h.69l.3-.69h1.51l.3.69h.71L20.6 20zm-.22 2l.5-1.19.52 1.19zm1.61-6.24a4.23 4.23 0 01-4.21-4.22h.59a3.62 3.62 0 007.24 0h.6a4.23 4.23 0 01-4.21 4.25zm22.43-8.54a2.68 2.68 0 00-2.12.85 3.61 3.61 0 00-.7 2.45 3.66 3.66 0 00.69 2.48 3 3 0 004.23 0 3.63 3.63 0 00.75-2.44 3.65 3.65 0 00-.74-2.44 2.63 2.63 0 00-2.11-.9zm1.34 5.11a1.79 1.79 0 01-2.69 0 3 3 0 01-.46-1.8 3 3 0 01.46-1.8 1.59 1.59 0 011.35-.61 1.57 1.57 0 011.34.61 3 3 0 01.45 1.8 3 3 0 01-.45 1.8zm4.71-5H48v6.43h1.71a3.28 3.28 0 002.42-.84 3.35 3.35 0 00.83-2.44 3.18 3.18 0 00-.81-2.32 3 3 0 00-2.28-.84zm-.18 5.54H49V8.2h.86c1.37 0 2 .77 2 2.31s-.7 2.35-2.17 2.35zm6.87-2.72l2.35 3.61h-1.15l-1.92-2.91-.59.5v2.41h-1V7.32h1v3.07l.82-1 1.65-2h1.13c-1.06 1.25-1.85 2.19-2.29 2.75zm7.2-1a1.7 1.7 0 00-.57-1.4 2.73 2.73 0 00-1.75-.47h-1.72v6.43h1v-2.53h1l1.46 2.57h1.12l-1.72-2.85a1.75 1.75 0 001.18-1.71zm-2.35 1.12h-.69V8.21h.66a1.79 1.79 0 011 .24.9.9 0 01.33.78 1 1 0 01-.31.81 1.53 1.53 0 01-.99.27zm6.94-3h1.09l-2 3.94v2.49h-1v-2.41l-2-4h1.08l1.45 2.93zm8.11 0h1l-1.59 6.43h-1.08l-1-3.83c-.05-.17-.1-.41-.17-.73a5.65 5.65 0 01-.12-.65c0 .18-.08.43-.14.73a5.84 5.84 0 01-.16.66l-1 3.82h-1.12l-.79-3.22-.8-3.21h1l.87 3.75c.14.6.23 1.13.29 1.59 0-.25.08-.53.14-.84s.12-.55.17-.74l1-3.76h1l1 3.77a14.35 14.35 0 01.31 1.57 11.55 11.55 0 01.3-1.6zm4.43 0h-1.08l-2.28 6.45h1l.64-1.72h2.34l.61 1.79h1.06zm-1.42 3.76L80 9.38a12 12 0 00.33-1.18l.15.56c.07.25.13.43.17.55l.58 1.75zM84 7.32h1v6.2a2.24 2.24 0 01-.45 1.5 1.6 1.6 0 01-1.3.52 1.9 1.9 0 01-.68-.11v-.88a2.43 2.43 0 00.61.09c.54 0 .81-.36.81-1.09zm12 0l-1.59 6.43h-1.1l-1-3.83c0-.17-.1-.41-.17-.73S92 8.66 92 8.54c0 .18-.07.43-.13.73s-.12.52-.16.66l-1 3.82h-1.12l-.78-3.22L88 7.32h1l.88 3.75c.13.6.23 1.13.29 1.59a8.15 8.15 0 01.14-.84c.06-.3.11-.55.16-.74l1-3.76h1l1 3.77a14.35 14.35 0 01.31 1.57 11.55 11.55 0 01.3-1.6L95 7.32z" fill="#fff"/></svg>