<?xml version="1.0" encoding="UTF-8" standalone="no"?><svg xmlns="http://www.w3.org/2000/svg" xmlns:xlink="http://www.w3.org/1999/xlink" height="7000px" id="Livello_1" viewBox="0 0 8000 7000" width="8000px" x="0px" y="0px">
<style type="text/css">.st0 { fill: rgb(151, 205, 123) }.st1 { fill: rgb(255, 193, 168) }.st2 { fill: rgb(164, 232, 227) }.st3 { fill: rgb(255, 153, 214) }.st4 { fill: rgb(66, 39, 121) }.st5 { fill: rgb(255, 203, 58) }.st6 { fill: rgb(255, 90, 0) }</style><g>
	<path class="st0" d="M3119.9,4125.6H1565.1c-27.5,0-50-22.5-50-50V2820.5c0-27.5,22.5-50,50-50h1554.8c27.5,0,50,22.5,50,50v1255.2   C3169.9,4103.1,3147.4,4125.6,3119.9,4125.6z" />
	<path class="st1" d="M3119.9,5615.1H1565.1c-27.5,0-50-22.5-50-50V4309.9c0-27.5,22.5-50,50-50h1554.8c27.5,0,50,22.5,50,50v1255.2   C3169.9,5592.6,3147.4,5615.1,3119.9,5615.1z" />
	<path class="st2" d="M6696.3,4125.6H5141.6c-27.5,0-50-22.5-50-50V2820.5c0-27.5,22.5-50,50-50h1554.8c27.5,0,50,22.5,50,50v1255.2   C6746.3,4103.1,6723.8,4125.6,6696.3,4125.6z" />
	<path class="st3" d="M6696.3,5615.1H5141.6c-27.5,0-50-22.5-50-50V4309.9c0-27.5,22.5-50,50-50h1554.8c27.5,0,50,22.5,50,50v1255.2   C6746.3,5592.6,6723.8,5615.1,6696.3,5615.1z" />
	<path class="st4" d="M4908.9,4125.6H3354.2c-27.5,0-50-22.5-50-50V2820.5c0-27.5,22.5-50,50-50h1554.8c27.5,0,50,22.5,50,50v1255.2   C4958.9,4103.1,4936.4,4125.6,4908.9,4125.6z" />
	<path class="st5" d="M4908.9,5615.1H3354.2c-27.5,0-50-22.5-50-50V4309.9c0-27.5,22.5-50,50-50h1554.8c27.5,0,50,22.5,50,50v1255.2   C4958.9,5592.6,4936.4,5615.1,4908.9,5615.1z" />
	<path class="st6" d="M5357.5,3870.7c0-350.2-283.9-634.1-634.1-634.1c-270,0-500.5,168.9-591.9,406.7   c-91.4-237.8-321.9-406.7-591.9-406.7c-350.2,0-634.1,283.9-634.1,634.1c0,96.2,21.5,187.3,59.8,269l-0.1,0   c124.8,302.1,678.9,807.6,1166.2,1294.9c487.3-487.3,1041.4-992.8,1166.2-1294.9l-0.1,0C5336,4058,5357.5,3966.9,5357.5,3870.7z" />
	<polygon class="st6" points="4129.6,1058.4 4130.7,1060.3 4131.9,1058.4 5911.8,2124.6 5911.8,1699.6 6483,1699.6 6483,2465.3    6481,2465.3 7214.9,2905 7021.5,3238.2 4130.7,1506.7 1240,3238.2 1046.5,2905  " />
</g>
</svg>